<svg width="17" height="17" viewBox="0 0 17 17" fill="none" xmlns="http://www.w3.org/2000/svg">
<mask id="path-1-outside-1_290_2690" maskUnits="userSpaceOnUse" x="0.791016" y="0.208008" width="16" height="16" fill="black">
<rect fill="white" x="0.791016" y="0.208008" width="16" height="16"/>
<path d="M14.7011 12.2395C15.3496 11.2062 15.7161 10.0122 15.7812 8.79858C15.8471 7.56774 15.58 6.3337 15.0341 5.22867C14.5071 4.1617 13.7018 3.24939 12.7345 2.55384C11.7441 1.84146 10.5795 1.41595 9.37015 1.2625C9.08204 1.22604 8.79152 1.20841 8.501 1.20801C6.77924 1.21161 5.1193 1.82223 3.79959 2.91443C2.5405 3.95656 1.65033 5.45224 1.34646 7.05089C1.18928 7.87946 1.21109 8.70923 1.21109 9.54662V12.8693C1.21109 13.6234 1.20342 14.3778 1.21109 15.1315C1.21109 15.1435 1.21109 15.1555 1.21109 15.1675C1.21109 15.436 1.44061 15.664 1.71175 15.664H7.49808C7.88114 15.664 8.26461 15.6704 8.64767 15.6623C9.87767 15.6363 11.0964 15.3018 12.1603 14.6883C13.1919 14.0938 14.0703 13.2431 14.7007 12.2391L14.7011 12.2395ZM11.4515 13.9443C11.3299 14.0088 11.2067 14.0697 11.0814 14.127C11.0479 14.1422 11.0143 14.1575 10.9804 14.1719C10.9755 14.1739 10.9654 14.1783 10.9541 14.1831C10.9359 14.1903 10.906 14.2027 10.8955 14.2071C10.8567 14.2224 10.818 14.2376 10.7792 14.252C10.5177 14.3506 10.2498 14.4331 9.97788 14.4984C9.83564 14.5329 9.6922 14.5625 9.54835 14.5874C9.48289 14.5986 9.41702 14.6086 9.35116 14.6186C9.31035 14.6238 9.26914 14.6286 9.22833 14.6326C8.76041 14.6819 8.28926 14.6707 7.81972 14.6707H2.2136V9.96451C2.2136 9.28459 2.18128 8.59344 2.2334 7.91472C2.24068 7.81976 2.24997 7.7248 2.26128 7.63025C2.2629 7.61823 2.26411 7.60581 2.26573 7.59379C2.26573 7.59379 2.26573 7.59379 2.26573 7.59338C2.27422 7.53729 2.2827 7.4816 2.2924 7.42551C2.32593 7.23199 2.36756 7.03967 2.41807 6.84975C2.46777 6.66184 2.52595 6.47633 2.59222 6.29363C2.62333 6.20709 2.65647 6.12135 2.69163 6.03641C2.6892 6.04201 2.68677 6.04722 2.68354 6.05363C2.69121 6.03721 2.69809 6.01998 2.70536 6.00315C2.72758 5.95267 2.75022 5.90298 2.77325 5.8533C2.93528 5.50713 3.12722 5.17498 3.34622 4.86126C3.39754 4.78754 3.45047 4.71462 3.50502 4.6433C3.50138 4.64771 3.49896 4.65051 3.49452 4.65572C3.50906 4.63849 3.5228 4.62006 3.53695 4.60243C3.56806 4.56357 3.59958 4.5251 3.6315 4.48664C3.75636 4.33759 3.88809 4.19375 4.02547 4.05552C4.15963 3.9209 4.29984 3.79149 4.4449 3.66848C4.51157 3.61199 4.57946 3.5575 4.64815 3.50341C4.64209 3.50742 4.63764 3.51102 4.63037 3.51623C4.64047 3.50902 4.65017 3.50141 4.65987 3.49419C4.66229 3.49219 4.66431 3.49059 4.66673 3.48859C4.6732 3.48338 4.68128 3.47777 4.68775 3.47336C4.69058 3.47136 4.693 3.46935 4.69583 3.46735C4.73947 3.4349 4.78392 3.40284 4.82836 3.37159C5.14192 3.15083 5.47448 2.9565 5.82118 2.79183C5.90078 2.75377 5.98159 2.71811 6.06281 2.68285C6.07736 2.67684 6.09231 2.67083 6.10686 2.66522C6.15858 2.64479 6.2103 2.62475 6.26242 2.60552C6.44587 2.53781 6.63175 2.47811 6.82045 2.42643C7.01117 2.37434 7.20392 2.33027 7.39828 2.29461C7.49162 2.27738 7.58657 2.26736 7.67991 2.24933C7.51263 2.28139 7.67426 2.25053 7.71749 2.24533C7.77487 2.23892 7.83225 2.23291 7.88963 2.2281C8.09288 2.21007 8.29694 2.20165 8.501 2.20125C8.78991 2.20205 9.0776 2.22129 9.3645 2.25574C9.36934 2.25654 9.3742 2.25695 9.37905 2.25775C9.41218 2.26255 9.44491 2.26776 9.47764 2.27297C9.55239 2.28499 9.62715 2.29861 9.7015 2.31344C9.84009 2.34068 9.97748 2.37234 10.1141 2.4084C10.3884 2.48052 10.6579 2.56986 10.921 2.67604C10.9275 2.67884 10.9343 2.68125 10.9412 2.68405C10.9626 2.69327 10.984 2.70248 11.0054 2.7117C11.0729 2.74135 11.1396 2.7722 11.2059 2.80385C11.3299 2.86355 11.4519 2.92685 11.572 2.99377C11.8148 3.12919 12.0492 3.27944 12.2734 3.44371C12.2973 3.46134 12.3211 3.47897 12.3445 3.4966C12.3486 3.4998 12.3526 3.50301 12.3567 3.50581C12.4104 3.54788 12.4629 3.59075 12.5155 3.63443C12.6234 3.72458 12.7284 3.81793 12.8306 3.91449C13.0282 4.1012 13.2145 4.29953 13.3883 4.50867C13.4113 4.53672 13.4343 4.56477 13.457 4.59281C13.461 4.59802 13.4719 4.61165 13.482 4.62447C13.4933 4.63889 13.5067 4.65652 13.5123 4.66373C13.5341 4.69258 13.5556 4.72183 13.577 4.75108C13.6598 4.86486 13.739 4.98106 13.8146 5.09965C13.9612 5.33044 14.0942 5.57003 14.2114 5.81644C14.2409 5.87854 14.2696 5.94065 14.297 6.00355C14.2978 6.00515 14.2986 6.00676 14.2991 6.00876C14.3132 6.04402 14.3277 6.07848 14.3419 6.11373C14.3928 6.24235 14.4397 6.37256 14.4821 6.50398C14.5686 6.76962 14.6377 7.04087 14.6898 7.31532C14.7031 7.38464 14.7148 7.45435 14.7261 7.52407C14.7314 7.55692 14.7354 7.58978 14.7407 7.62223C14.7132 7.45596 14.7387 7.60821 14.7431 7.64547C14.7601 7.78771 14.7722 7.93074 14.7799 8.07378C14.7957 8.36787 14.7924 8.66316 14.7698 8.95684C14.7645 9.02335 14.7585 9.08986 14.7512 9.15637C14.7476 9.18963 14.7439 9.22248 14.7399 9.25574C14.7391 9.26335 14.7379 9.27096 14.7371 9.27898C14.7152 9.41841 14.6918 9.55744 14.6627 9.69567C14.6041 9.97293 14.5273 10.2462 14.434 10.5134C14.4126 10.5743 14.3904 10.6348 14.3673 10.6949C14.3556 10.725 14.3439 10.755 14.3322 10.7847C14.3261 10.7995 14.2966 10.87 14.2934 10.8784C14.2906 10.8852 14.2877 10.8912 14.2865 10.8941C14.2716 10.9277 14.2566 10.961 14.2413 10.9942C14.2126 11.0563 14.1827 11.118 14.152 11.1793C14.0275 11.4273 13.8877 11.6677 13.7333 11.8985C13.6578 12.0115 13.5786 12.1225 13.4966 12.2307C13.4937 12.2347 13.4905 12.2387 13.4873 12.2427C13.4687 12.2659 13.4505 12.2888 13.4319 12.312C13.3891 12.3645 13.3454 12.4166 13.301 12.4683C13.1204 12.677 12.9264 12.8749 12.7215 13.06C12.6205 13.1514 12.5171 13.2395 12.4108 13.3245C12.389 13.3421 12.3668 13.3593 12.3445 13.377C12.3393 13.381 12.334 13.385 12.3292 13.3886C12.271 13.4323 12.212 13.4747 12.1522 13.5164C11.9279 13.6731 11.694 13.8161 11.4519 13.9447L11.4515 13.9443Z"/>
</mask>
<path d="M14.7011 12.2395C15.3496 11.2062 15.7161 10.0122 15.7812 8.79858C15.8471 7.56774 15.58 6.3337 15.0341 5.22867C14.5071 4.1617 13.7018 3.24939 12.7345 2.55384C11.7441 1.84146 10.5795 1.41595 9.37015 1.2625C9.08204 1.22604 8.79152 1.20841 8.501 1.20801C6.77924 1.21161 5.1193 1.82223 3.79959 2.91443C2.5405 3.95656 1.65033 5.45224 1.34646 7.05089C1.18928 7.87946 1.21109 8.70923 1.21109 9.54662V12.8693C1.21109 13.6234 1.20342 14.3778 1.21109 15.1315C1.21109 15.1435 1.21109 15.1555 1.21109 15.1675C1.21109 15.436 1.44061 15.664 1.71175 15.664H7.49808C7.88114 15.664 8.26461 15.6704 8.64767 15.6623C9.87767 15.6363 11.0964 15.3018 12.1603 14.6883C13.1919 14.0938 14.0703 13.2431 14.7007 12.2391L14.7011 12.2395ZM11.4515 13.9443C11.3299 14.0088 11.2067 14.0697 11.0814 14.127C11.0479 14.1422 11.0143 14.1575 10.9804 14.1719C10.9755 14.1739 10.9654 14.1783 10.9541 14.1831C10.9359 14.1903 10.906 14.2027 10.8955 14.2071C10.8567 14.2224 10.818 14.2376 10.7792 14.252C10.5177 14.3506 10.2498 14.4331 9.97788 14.4984C9.83564 14.5329 9.6922 14.5625 9.54835 14.5874C9.48289 14.5986 9.41702 14.6086 9.35116 14.6186C9.31035 14.6238 9.26914 14.6286 9.22833 14.6326C8.76041 14.6819 8.28926 14.6707 7.81972 14.6707H2.2136V9.96451C2.2136 9.28459 2.18128 8.59344 2.2334 7.91472C2.24068 7.81976 2.24997 7.7248 2.26128 7.63025C2.2629 7.61823 2.26411 7.60581 2.26573 7.59379C2.26573 7.59379 2.26573 7.59379 2.26573 7.59338C2.27422 7.53729 2.2827 7.4816 2.2924 7.42551C2.32593 7.23199 2.36756 7.03967 2.41807 6.84975C2.46777 6.66184 2.52595 6.47633 2.59222 6.29363C2.62333 6.20709 2.65647 6.12135 2.69163 6.03641C2.6892 6.04201 2.68677 6.04722 2.68354 6.05363C2.69121 6.03721 2.69809 6.01998 2.70536 6.00315C2.72758 5.95267 2.75022 5.90298 2.77325 5.8533C2.93528 5.50713 3.12722 5.17498 3.34622 4.86126C3.39754 4.78754 3.45047 4.71462 3.50502 4.6433C3.50138 4.64771 3.49896 4.65051 3.49452 4.65572C3.50906 4.63849 3.5228 4.62006 3.53695 4.60243C3.56806 4.56357 3.59958 4.5251 3.6315 4.48664C3.75636 4.33759 3.88809 4.19375 4.02547 4.05552C4.15963 3.9209 4.29984 3.79149 4.4449 3.66848C4.51157 3.61199 4.57946 3.5575 4.64815 3.50341C4.64209 3.50742 4.63764 3.51102 4.63037 3.51623C4.64047 3.50902 4.65017 3.50141 4.65987 3.49419C4.66229 3.49219 4.66431 3.49059 4.66673 3.48859C4.6732 3.48338 4.68128 3.47777 4.68775 3.47336C4.69058 3.47136 4.693 3.46935 4.69583 3.46735C4.73947 3.4349 4.78392 3.40284 4.82836 3.37159C5.14192 3.15083 5.47448 2.9565 5.82118 2.79183C5.90078 2.75377 5.98159 2.71811 6.06281 2.68285C6.07736 2.67684 6.09231 2.67083 6.10686 2.66522C6.15858 2.64479 6.2103 2.62475 6.26242 2.60552C6.44587 2.53781 6.63175 2.47811 6.82045 2.42643C7.01117 2.37434 7.20392 2.33027 7.39828 2.29461C7.49162 2.27738 7.58657 2.26736 7.67991 2.24933C7.51263 2.28139 7.67426 2.25053 7.71749 2.24533C7.77487 2.23892 7.83225 2.23291 7.88963 2.2281C8.09288 2.21007 8.29694 2.20165 8.501 2.20125C8.78991 2.20205 9.0776 2.22129 9.3645 2.25574C9.36934 2.25654 9.3742 2.25695 9.37905 2.25775C9.41218 2.26255 9.44491 2.26776 9.47764 2.27297C9.55239 2.28499 9.62715 2.29861 9.7015 2.31344C9.84009 2.34068 9.97748 2.37234 10.1141 2.4084C10.3884 2.48052 10.6579 2.56986 10.921 2.67604C10.9275 2.67884 10.9343 2.68125 10.9412 2.68405C10.9626 2.69327 10.984 2.70248 11.0054 2.7117C11.0729 2.74135 11.1396 2.7722 11.2059 2.80385C11.3299 2.86355 11.4519 2.92685 11.572 2.99377C11.8148 3.12919 12.0492 3.27944 12.2734 3.44371C12.2973 3.46134 12.3211 3.47897 12.3445 3.4966C12.3486 3.4998 12.3526 3.50301 12.3567 3.50581C12.4104 3.54788 12.4629 3.59075 12.5155 3.63443C12.6234 3.72458 12.7284 3.81793 12.8306 3.91449C13.0282 4.1012 13.2145 4.29953 13.3883 4.50867C13.4113 4.53672 13.4343 4.56477 13.457 4.59281C13.461 4.59802 13.4719 4.61165 13.482 4.62447C13.4933 4.63889 13.5067 4.65652 13.5123 4.66373C13.5341 4.69258 13.5556 4.72183 13.577 4.75108C13.6598 4.86486 13.739 4.98106 13.8146 5.09965C13.9612 5.33044 14.0942 5.57003 14.2114 5.81644C14.2409 5.87854 14.2696 5.94065 14.297 6.00355C14.2978 6.00515 14.2986 6.00676 14.2991 6.00876C14.3132 6.04402 14.3277 6.07848 14.3419 6.11373C14.3928 6.24235 14.4397 6.37256 14.4821 6.50398C14.5686 6.76962 14.6377 7.04087 14.6898 7.31532C14.7031 7.38464 14.7148 7.45435 14.7261 7.52407C14.7314 7.55692 14.7354 7.58978 14.7407 7.62223C14.7132 7.45596 14.7387 7.60821 14.7431 7.64547C14.7601 7.78771 14.7722 7.93074 14.7799 8.07378C14.7957 8.36787 14.7924 8.66316 14.7698 8.95684C14.7645 9.02335 14.7585 9.08986 14.7512 9.15637C14.7476 9.18963 14.7439 9.22248 14.7399 9.25574C14.7391 9.26335 14.7379 9.27096 14.7371 9.27898C14.7152 9.41841 14.6918 9.55744 14.6627 9.69567C14.6041 9.97293 14.5273 10.2462 14.434 10.5134C14.4126 10.5743 14.3904 10.6348 14.3673 10.6949C14.3556 10.725 14.3439 10.755 14.3322 10.7847C14.3261 10.7995 14.2966 10.87 14.2934 10.8784C14.2906 10.8852 14.2877 10.8912 14.2865 10.8941C14.2716 10.9277 14.2566 10.961 14.2413 10.9942C14.2126 11.0563 14.1827 11.118 14.152 11.1793C14.0275 11.4273 13.8877 11.6677 13.7333 11.8985C13.6578 12.0115 13.5786 12.1225 13.4966 12.2307C13.4937 12.2347 13.4905 12.2387 13.4873 12.2427C13.4687 12.2659 13.4505 12.2888 13.4319 12.312C13.3891 12.3645 13.3454 12.4166 13.301 12.4683C13.1204 12.677 12.9264 12.8749 12.7215 13.06C12.6205 13.1514 12.5171 13.2395 12.4108 13.3245C12.389 13.3421 12.3668 13.3593 12.3445 13.377C12.3393 13.381 12.334 13.385 12.3292 13.3886C12.271 13.4323 12.212 13.4747 12.1522 13.5164C11.9279 13.6731 11.694 13.8161 11.4519 13.9447L11.4515 13.9443Z" fill="#AFB9CA"/>
<path d="M14.7011 12.2395C15.3496 11.2062 15.7161 10.0122 15.7812 8.79858C15.8471 7.56774 15.58 6.3337 15.0341 5.22867C14.5071 4.1617 13.7018 3.24939 12.7345 2.55384C11.7441 1.84146 10.5795 1.41595 9.37015 1.2625C9.08204 1.22604 8.79152 1.20841 8.501 1.20801C6.77924 1.21161 5.1193 1.82223 3.79959 2.91443C2.5405 3.95656 1.65033 5.45224 1.34646 7.05089C1.18928 7.87946 1.21109 8.70923 1.21109 9.54662V12.8693C1.21109 13.6234 1.20342 14.3778 1.21109 15.1315C1.21109 15.1435 1.21109 15.1555 1.21109 15.1675C1.21109 15.436 1.44061 15.664 1.71175 15.664H7.49808C7.88114 15.664 8.26461 15.6704 8.64767 15.6623C9.87767 15.6363 11.0964 15.3018 12.1603 14.6883C13.1919 14.0938 14.0703 13.2431 14.7007 12.2391L14.7011 12.2395ZM11.4515 13.9443C11.3299 14.0088 11.2067 14.0697 11.0814 14.127C11.0479 14.1422 11.0143 14.1575 10.9804 14.1719C10.9755 14.1739 10.9654 14.1783 10.9541 14.1831C10.9359 14.1903 10.906 14.2027 10.8955 14.2071C10.8567 14.2224 10.818 14.2376 10.7792 14.252C10.5177 14.3506 10.2498 14.4331 9.97788 14.4984C9.83564 14.5329 9.6922 14.5625 9.54835 14.5874C9.48289 14.5986 9.41702 14.6086 9.35116 14.6186C9.31035 14.6238 9.26914 14.6286 9.22833 14.6326C8.76041 14.6819 8.28926 14.6707 7.81972 14.6707H2.2136V9.96451C2.2136 9.28459 2.18128 8.59344 2.2334 7.91472C2.24068 7.81976 2.24997 7.7248 2.26128 7.63025C2.2629 7.61823 2.26411 7.60581 2.26573 7.59379C2.26573 7.59379 2.26573 7.59379 2.26573 7.59338C2.27422 7.53729 2.2827 7.4816 2.2924 7.42551C2.32593 7.23199 2.36756 7.03967 2.41807 6.84975C2.46777 6.66184 2.52595 6.47633 2.59222 6.29363C2.62333 6.20709 2.65647 6.12135 2.69163 6.03641C2.6892 6.04201 2.68677 6.04722 2.68354 6.05363C2.69121 6.03721 2.69809 6.01998 2.70536 6.00315C2.72758 5.95267 2.75022 5.90298 2.77325 5.8533C2.93528 5.50713 3.12722 5.17498 3.34622 4.86126C3.39754 4.78754 3.45047 4.71462 3.50502 4.6433C3.50138 4.64771 3.49896 4.65051 3.49452 4.65572C3.50906 4.63849 3.5228 4.62006 3.53695 4.60243C3.56806 4.56357 3.59958 4.5251 3.6315 4.48664C3.75636 4.33759 3.88809 4.19375 4.02547 4.05552C4.15963 3.9209 4.29984 3.79149 4.4449 3.66848C4.51157 3.61199 4.57946 3.5575 4.64815 3.50341C4.64209 3.50742 4.63764 3.51102 4.63037 3.51623C4.64047 3.50902 4.65017 3.50141 4.65987 3.49419C4.66229 3.49219 4.66431 3.49059 4.66673 3.48859C4.6732 3.48338 4.68128 3.47777 4.68775 3.47336C4.69058 3.47136 4.693 3.46935 4.69583 3.46735C4.73947 3.4349 4.78392 3.40284 4.82836 3.37159C5.14192 3.15083 5.47448 2.9565 5.82118 2.79183C5.90078 2.75377 5.98159 2.71811 6.06281 2.68285C6.07736 2.67684 6.09231 2.67083 6.10686 2.66522C6.15858 2.64479 6.2103 2.62475 6.26242 2.60552C6.44587 2.53781 6.63175 2.47811 6.82045 2.42643C7.01117 2.37434 7.20392 2.33027 7.39828 2.29461C7.49162 2.27738 7.58657 2.26736 7.67991 2.24933C7.51263 2.28139 7.67426 2.25053 7.71749 2.24533C7.77487 2.23892 7.83225 2.23291 7.88963 2.2281C8.09288 2.21007 8.29694 2.20165 8.501 2.20125C8.78991 2.20205 9.0776 2.22129 9.3645 2.25574C9.36934 2.25654 9.3742 2.25695 9.37905 2.25775C9.41218 2.26255 9.44491 2.26776 9.47764 2.27297C9.55239 2.28499 9.62715 2.29861 9.7015 2.31344C9.84009 2.34068 9.97748 2.37234 10.1141 2.4084C10.3884 2.48052 10.6579 2.56986 10.921 2.67604C10.9275 2.67884 10.9343 2.68125 10.9412 2.68405C10.9626 2.69327 10.984 2.70248 11.0054 2.7117C11.0729 2.74135 11.1396 2.7722 11.2059 2.80385C11.3299 2.86355 11.4519 2.92685 11.572 2.99377C11.8148 3.12919 12.0492 3.27944 12.2734 3.44371C12.2973 3.46134 12.3211 3.47897 12.3445 3.4966C12.3486 3.4998 12.3526 3.50301 12.3567 3.50581C12.4104 3.54788 12.4629 3.59075 12.5155 3.63443C12.6234 3.72458 12.7284 3.81793 12.8306 3.91449C13.0282 4.1012 13.2145 4.29953 13.3883 4.50867C13.4113 4.53672 13.4343 4.56477 13.457 4.59281C13.461 4.59802 13.4719 4.61165 13.482 4.62447C13.4933 4.63889 13.5067 4.65652 13.5123 4.66373C13.5341 4.69258 13.5556 4.72183 13.577 4.75108C13.6598 4.86486 13.739 4.98106 13.8146 5.09965C13.9612 5.33044 14.0942 5.57003 14.2114 5.81644C14.2409 5.87854 14.2696 5.94065 14.297 6.00355C14.2978 6.00515 14.2986 6.00676 14.2991 6.00876C14.3132 6.04402 14.3277 6.07848 14.3419 6.11373C14.3928 6.24235 14.4397 6.37256 14.4821 6.50398C14.5686 6.76962 14.6377 7.04087 14.6898 7.31532C14.7031 7.38464 14.7148 7.45435 14.7261 7.52407C14.7314 7.55692 14.7354 7.58978 14.7407 7.62223C14.7132 7.45596 14.7387 7.60821 14.7431 7.64547C14.7601 7.78771 14.7722 7.93074 14.7799 8.07378C14.7957 8.36787 14.7924 8.66316 14.7698 8.95684C14.7645 9.02335 14.7585 9.08986 14.7512 9.15637C14.7476 9.18963 14.7439 9.22248 14.7399 9.25574C14.7391 9.26335 14.7379 9.27096 14.7371 9.27898C14.7152 9.41841 14.6918 9.55744 14.6627 9.69567C14.6041 9.97293 14.5273 10.2462 14.434 10.5134C14.4126 10.5743 14.3904 10.6348 14.3673 10.6949C14.3556 10.725 14.3439 10.755 14.3322 10.7847C14.3261 10.7995 14.2966 10.87 14.2934 10.8784C14.2906 10.8852 14.2877 10.8912 14.2865 10.8941C14.2716 10.9277 14.2566 10.961 14.2413 10.9942C14.2126 11.0563 14.1827 11.118 14.152 11.1793C14.0275 11.4273 13.8877 11.6677 13.7333 11.8985C13.6578 12.0115 13.5786 12.1225 13.4966 12.2307C13.4937 12.2347 13.4905 12.2387 13.4873 12.2427C13.4687 12.2659 13.4505 12.2888 13.4319 12.312C13.3891 12.3645 13.3454 12.4166 13.301 12.4683C13.1204 12.677 12.9264 12.8749 12.7215 13.06C12.6205 13.1514 12.5171 13.2395 12.4108 13.3245C12.389 13.3421 12.3668 13.3593 12.3445 13.377C12.3393 13.381 12.334 13.385 12.3292 13.3886C12.271 13.4323 12.212 13.4747 12.1522 13.5164C11.9279 13.6731 11.694 13.8161 11.4519 13.9447L11.4515 13.9443Z" stroke="#AFB9CA" stroke-width="0.74701" stroke-linejoin="round" mask="url(#path-1-outside-1_290_2690)"/>
<path d="M7.698 8.62338C7.59255 8.18038 7.86925 7.7365 8.31602 7.63195C8.7628 7.52739 9.21046 7.80174 9.3159 8.24475C9.42135 8.68775 9.14466 9.13164 8.69788 9.23619C8.25111 9.34075 7.80345 9.06639 7.698 8.62338Z" fill="#AFB9CA"/>
<path d="M11.4221 9.1977C10.998 9.02351 10.7966 8.5414 10.9723 8.12088C11.1479 7.70035 11.6342 7.50066 12.0583 7.67484C12.4824 7.84903 12.6838 8.33114 12.5081 8.75166C12.3324 9.17219 11.8462 9.37189 11.4221 9.1977Z" fill="#AFB9CA"/>
<path d="M5.2528 9.25966C4.79375 9.25966 4.42163 8.89067 4.42163 8.43549C4.42163 7.98032 4.79375 7.61133 5.2528 7.61133C5.71185 7.61133 6.08398 7.98032 6.08398 8.43549C6.08398 8.89067 5.71185 9.25966 5.2528 9.25966Z" fill="#AFB9CA"/>
</svg>
