<svg width="22" height="20" viewBox="0 0 22 20" fill="none" xmlns="http://www.w3.org/2000/svg">
<path d="M15.3443 1.33301C13.6393 1.33301 12.0673 2.05331 11.0003 3.29262C9.93333 2.05299 8.36173 1.33301 6.65639 1.33301C3.53762 1.33301 1 3.78067 1 6.78961C1 12.3027 7.78726 16.8761 10.7051 18.5867C10.7957 18.6399 10.8977 18.6663 11 18.6663C11.1023 18.6663 11.2043 18.6399 11.2949 18.5867C14.2131 16.8764 21 12.303 21 6.78961C21 3.781 18.4627 1.33301 15.3436 1.33301H15.3443ZM17.1011 12.653C15.586 14.3268 13.4814 15.9897 11.0003 17.4754C8.51923 15.9897 6.41497 14.3268 4.89955 12.653C3.06581 10.6276 2.13623 8.65472 2.13623 6.78961C2.13623 4.38517 4.16391 2.4291 6.65639 2.4291C8.2437 2.4291 9.68622 3.21037 10.5158 4.51872C10.6191 4.68161 10.8027 4.78097 11.0003 4.78097C11.198 4.78097 11.3819 4.68161 11.4849 4.51872C12.3141 3.21037 13.757 2.4291 15.3443 2.4291C17.8368 2.4291 19.8644 4.38517 19.8644 6.78961C19.8644 8.65472 18.9345 10.6276 17.1011 12.653Z" fill="#AFB9CA" stroke="#AFB9CA"/>
</svg>
