<svg width="9" height="7" viewBox="0 0 9 7" fill="none" xmlns="http://www.w3.org/2000/svg">
<path d="M3.09459 4.38071L7.23958 0.195092C7.36838 0.0650305 7.53231 0 7.73136 0C7.93042 0 8.09434 0.0650305 8.22314 0.195092C8.35194 0.325154 8.41634 0.490686 8.41634 0.691691C8.41634 0.892695 8.35194 1.05823 8.22314 1.18829L3.58637 5.8705C3.44586 6.01239 3.28194 6.08333 3.09459 6.08333C2.90725 6.08333 2.74332 6.01239 2.60281 5.8705L0.776206 4.026C0.647407 3.89593 0.583008 3.7304 0.583008 3.5294C0.583008 3.32839 0.647407 3.16286 0.776206 3.0328C0.905006 2.90274 1.06893 2.83771 1.26799 2.83771C1.46704 2.83771 1.63096 2.90274 1.75976 3.0328L3.09459 4.38071Z" fill="white"/>
</svg>
