<svg width="21" height="20" viewBox="0 0 21 20" fill="none" xmlns="http://www.w3.org/2000/svg">
<path d="M3.00195 20C2.16862 20 1.46029 19.7083 0.876953 19.125C0.29362 18.5417 0.00195312 17.8333 0.00195312 17V3C0.00195312 2.16667 0.29362 1.45833 0.876953 0.875C1.46029 0.291667 2.16862 0 3.00195 0H17.002C17.8353 0 18.5436 0.291667 19.127 0.875C19.7103 1.45833 20.002 2.16667 20.002 3V17C20.002 17.8333 19.7103 18.5417 19.127 19.125C18.5436 19.7083 17.8353 20 17.002 20H3.00195ZM3.00195 18H17.002C17.2853 18 17.5226 17.904 17.714 17.712C17.906 17.5207 18.002 17.2833 18.002 17V3C18.002 2.71667 17.906 2.479 17.714 2.287C17.5226 2.09567 17.2853 2 17.002 2H3.00195C2.71862 2 2.48095 2.09567 2.28895 2.287C2.09762 2.479 2.00195 2.71667 2.00195 3V17C2.00195 17.2833 2.09762 17.5207 2.28895 17.712C2.48095 17.904 2.71862 18 3.00195 18ZM4.00195 16L8.00195 12L9.80195 13.775L12.002 11L16.002 16H4.00195ZM6.00195 8C5.45195 8 4.98129 7.804 4.58995 7.412C4.19795 7.02067 4.00195 6.55 4.00195 6C4.00195 5.45 4.19795 4.97933 4.58995 4.588C4.98129 4.196 5.45195 4 6.00195 4C6.55195 4 7.02295 4.196 7.41495 4.588C7.80629 4.97933 8.00195 5.45 8.00195 6C8.00195 6.55 7.80629 7.02067 7.41495 7.412C7.02295 7.804 6.55195 8 6.00195 8Z" fill="#919EB6"/>
</svg>
